<?xml version="1.0" encoding="UTF-8" standalone="no"?>
<!--part of the matt icon theme by sixsixfive released under CC0 (https://creativecommons.org/publicdomain/zero/1.0/) on openclipart-->
<svg xmlns="http://www.w3.org/2000/svg" xmlns:xlink="http://www.w3.org/1999/xlink" viewBox="0 0 128 128">
 <defs id="0">
  <linearGradient id="2">
   <stop id="D"/>
   <stop offset="1" id="E" stop-opacity="0"/>
  </linearGradient>
  <linearGradient id="3">
   <stop id="F" stop-color="#eee"/>
   <stop offset="1" id="G" stop-color="#eee" stop-opacity="0"/>
  </linearGradient>
  <linearGradient id="4">
   <stop id="H" stop-color="#f0ff80"/>
   <stop offset="1" id="I" stop-color="#8bb300"/>
  </linearGradient>
  <radialGradient xlink:href="#3" id="5" cx="-1.676" cy="68.74" r="57.42" gradientTransform="matrix(-9.9459471e-2,-2.4624812,1.1895494,-4.8045826e-2,-65.457862,116.55871)" gradientUnits="userSpaceOnUse"/>
  <radialGradient xlink:href="#2" id="6" cx="66.03" cy="124.31" r="62.2" gradientTransform="matrix(1,0,0,3.2967033e-2,0,120.21084)" gradientUnits="userSpaceOnUse"/>
  <filter id="7" x="-0.013" width="1.025" y="-0.382" height="1.763">
   <feGaussianBlur stdDeviation="0.65211" id="J"/>
  </filter>
  <linearGradient xlink:href="#4" id="8" x1="6.813" x2="121.19" gradientUnits="userSpaceOnUse"/>
 </defs>
 <g id="1">
  <path id="9" d="M 128.23004,124.30894 A 62.201138,2.0505869 0 1 1 3.8277626,124.30894 A 62.201138,2.0505869 0 1 1 128.23004,124.30894 z" transform="matrix(0.832967,0,0,1.9333334,22.785702,-116.84191)" opacity="0.52" fill="url(#6)" filter="url(#7)" stroke-linejoin="bevel" stroke-linecap="round" stroke-width="2.15"/>
  <path id="A" d="M 79.322947,4.4334713 C 76.371996,4.4334713 73.38107,4.8018313 71.905595,5.5395713 C 68.954624,7.0150513 66.028784,10.005971 64.553308,12.956921 C 63.077833,15.907891 63.077812,17.358241 64.553308,20.309211 C 66.028784,23.260161 71.905595,26.186001 71.905595,27.661497 C 71.905595,30.612448 67.504259,35.078849 64.553308,35.078849 L 57.135957,35.078849 L 35.014032,35.078849 L 35.014032,57.200774 L 35.014032,64.55306 C 35.014011,67.504032 30.612695,71.970412 27.661741,71.970412 C 26.186281,71.970412 23.260401,66.028536 20.309451,64.55306 C 17.358481,63.077606 15.843051,63.077585 12.892101,64.55306 C 9.9411513,66.028556 7.0152913,69.019462 5.5398113,71.970412 C 4.0643313,74.921362 4.0643313,83.7891 5.5398113,86.74005 C 7.0152913,89.691021 9.9411513,92.616841 12.892101,94.092337 C 15.843051,95.567812 17.358481,95.567812 20.309451,94.092337 C 23.260401,92.616862 26.186261,86.74005 27.661741,86.74005 C 30.612716,86.740071 35.014032,91.141366 35.014032,94.092337 L 35.014032,123.56653 L 123.5668,123.56653 L 123.5668,101.44462 L 123.5668,94.092337 C 123.5668,91.141366 119.16546,86.740071 116.21451,86.74005 C 114.73904,86.74005 111.74811,92.616862 108.79716,94.092337 C 105.84619,95.567812 104.39582,95.567812 101.44487,94.092337 C 98.493921,92.616841 95.502975,89.691021 94.02752,86.74005 C 92.552045,83.7891 92.552024,74.921362 94.02752,71.970412 C 95.502996,69.019462 98.493921,66.028556 101.44487,64.55306 C 104.39582,63.077585 105.84619,63.077606 108.79716,64.55306 C 111.74811,66.028536 114.73904,71.970412 116.21451,71.970412 C 119.16546,71.970412 123.56682,67.504032 123.5668,64.55306 L 123.5668,57.200774 L 123.5668,35.078849 L 101.44487,35.078849 L 94.02752,35.078849 C 91.076549,35.078849 86.675234,30.612448 86.675234,27.661497 C 86.675254,26.186021 92.552045,23.260161 94.02752,20.309211 C 95.502975,17.358241 95.502996,15.907871 94.02752,12.956921 C 92.552024,10.005991 89.626184,7.0150513 86.675234,5.5395713 C 85.199779,4.8018313 82.273897,4.4334713 79.322947,4.4334713 z" fill="#638000" fill-rule="evenodd" stroke-width="1.25"/>
  <path id="B" d="M 37.46875,6.8125 L 37.46875,26.5625 L 37.46875,33.96875 C 37.468751,36.644466 35.927421,38.694183 34.15625,40.4375 C 32.385079,42.180817 30.306878,43.6875 27.65625,43.6875 C 25.717523,43.687472 25.212558,42.675674 24.5625,41.96875 C 23.912442,41.261826 23.290033,40.472299 22.65625,39.65625 C 21.388684,38.024151 19.881386,36.409443 19.25,36.09375 C 17.912507,35.425017 17.192881,35.218751 16.625,35.21875 C 16.057119,35.218749 15.368723,35.425013 14.03125,36.09375 C 11.620786,37.299007 8.8345611,40.018386 7.65625,42.375 C 7.346657,42.994175 6.8125,45.927029 6.8125,48.6875 C 6.8125001,51.447971 7.3526184,54.423989 7.65625,55.03125 C 8.8345658,57.38789 11.620784,60.107266 14.03125,61.3125 C 15.368744,61.981242 16.08838,62.187499 16.65625,62.1875 C 17.22412,62.187501 17.912515,61.981248 19.25,61.3125 C 19.88138,60.99681 21.388685,59.382103 22.65625,57.75 C 23.290032,56.933949 23.912437,56.144427 24.5625,55.4375 C 25.212563,54.730573 25.717523,53.71875 27.65625,53.71875 C 30.306883,53.71875 32.385081,55.225432 34.15625,56.96875 C 35.927419,58.712068 37.46875,60.761787 37.46875,63.4375 L 37.46875,70.875 L 37.46875,90.625 L 57.1875,90.625 L 64.5625,90.625 C 67.213121,90.625018 69.267871,92.130204 71.03125,93.875 C 72.794629,95.619796 74.34375,97.676403 74.34375,100.34375 C 74.343748,101.32149 73.945375,101.90363 73.625,102.34375 C 73.304625,102.78387 72.981562,103.11294 72.625,103.4375 C 71.911875,104.08662 71.073535,104.71015 70.25,105.34375 C 68.60293,106.61095 66.997211,108.13058 66.6875,108.75 C 66.02176,110.08151 65.812502,110.8153 65.8125,111.40625 C 65.812498,111.9972 66.021755,112.69976 66.6875,114.03125 C 67.874814,116.40584 70.638737,119.14749 73.03125,120.34375 C 73.656873,120.65656 76.583092,121.21875 79.34375,121.21875 C 82.104408,121.21875 85.061874,120.65656 85.6875,120.34375 C 88.068062,119.15347 90.769472,116.42977 91.96875,114.03125 C 92.634496,112.69975 92.84375,111.99719 92.84375,111.40625 C 92.84375,110.81531 92.634498,110.08151 91.96875,108.75 C 91.653057,108.11862 90.038352,106.61132 88.40625,105.34375 C 87.590199,104.70997 86.800675,104.08756 86.09375,103.4375 C 85.386825,102.78744 84.375,102.28249 84.375,100.34375 C 84.375016,97.693132 85.877227,95.622775 87.625,93.875 C 89.372773,92.127225 91.443121,90.625 94.09375,90.625 L 121.1875,90.625 L 121.1875,6.8125 L 101.4375,6.8125 L 94.09375,6.8125 C 93.79341,6.8125 92.186356,7.5011397 91,8.6875 C 90.01137,9.6761336 89.467336,10.799389 89.28125,11.375 C 89.298046,11.392957 89.293081,11.388194 89.3125,11.40625 C 89.753844,11.816603 90.508836,12.406168 91.34375,13.0625 C 93.013579,14.375165 95.061957,15.811413 96.21875,18.125 C 97.026978,19.741472 97.562499,21.242417 97.5625,22.875 C 97.562501,24.507583 97.026982,26.008535 96.21875,27.625 C 94.470027,31.12239 91.345867,34.327103 87.8125,36.09375 C 85.487181,37.256408 82.529493,37.437497 79.375,37.4375 C 76.220507,37.437503 73.231581,37.256432 70.90625,36.09375 C 67.384892,34.333072 64.19819,31.146331 62.4375,27.625 C 61.629268,26.008533 61.093747,24.50758 61.09375,22.875 C 61.093753,21.24242 61.629283,19.74147 62.4375,18.125 C 63.600277,15.799452 65.688891,14.375541 67.375,13.0625 C 68.218054,12.40598 68.959405,11.817515 69.40625,11.40625 C 69.424095,11.389826 69.420733,11.390863 69.4375,11.375 C 69.25082,10.809466 68.722222,9.6804009 67.71875,8.6875 C 66.516748,7.4981607 64.862823,6.8124979 64.5625,6.8125 L 57.1875,6.8125 L 37.46875,6.8125 z" transform="matrix(0,1,-1,0,128.01562,1.5625e-2)" fill="url(#8)" fill-rule="evenodd" stroke-width="1.25"/>
  <path id="C" d="M 38.3125,7.65625 L 38.3125,26.5625 L 38.3125,33.96875 C 38.312501,36.963037 36.581373,39.228678 34.75,41.03125 C 32.917925,42.834513 30.621236,44.53125 27.65625,44.53125 C 26.542577,44.531234 25.705729,44.190632 25.125,43.75 C 24.544271,43.309368 24.201496,42.81834 23.9375,42.53125 C 23.257715,41.791999 22.636175,40.975379 22,40.15625 C 21.382633,39.361337 20.715471,38.559655 20.125,37.9375 C 19.534529,37.315345 18.920861,36.86668 18.875,36.84375 C 17.582935,36.19773 16.992009,36.062501 16.625,36.0625 C 16.257991,36.062499 15.702912,36.195418 14.40625,36.84375 C 12.213507,37.940144 9.4647908,40.632926 8.40625,42.75 C 8.4033317,42.755836 8.2746213,43.02919 8.1875,43.40625 C 8.1003787,43.78331 8.0209075,44.28411 7.9375,44.84375 C 7.7706851,45.96303 7.65625,47.360771 7.65625,48.6875 C 7.65625,50.013632 7.7698322,51.402078 7.9375,52.53125 C 8.0213339,53.095836 8.1317521,53.620137 8.21875,54 C 8.3057479,54.379863 8.4075536,54.658857 8.40625,54.65625 C 9.4647968,56.773351 12.213512,59.46613 14.40625,60.5625 C 15.698311,61.208526 16.289247,61.343749 16.65625,61.34375 C 17.023255,61.343751 17.578329,61.210841 18.875,60.5625 C 18.920857,60.539572 19.534528,60.090905 20.125,59.46875 C 20.715472,58.846595 21.382634,58.044914 22,57.25 C 22.636174,56.430869 23.25771,55.614254 23.9375,54.875 C 24.201494,54.587913 24.54427,54.096887 25.125,53.65625 C 25.70573,53.215613 26.542572,52.875 27.65625,52.875 C 30.62124,52.875 32.917927,54.571736 34.75,56.375 C 36.581371,58.177573 38.3125,60.443215 38.3125,63.4375 L 38.3125,70.875 L 38.3125,89.78125 L 57.1875,89.78125 L 64.5625,89.78125 C 67.527164,89.78127 69.802153,91.477612 71.625,93.28125 C 73.447386,95.084431 75.1875,97.355217 75.1875,100.34375 C 75.187498,101.54682 74.613894,102.38678 74.28125,102.84375 C 73.920502,103.33933 73.566018,103.71795 73.1875,104.0625 C 72.430602,104.75146 71.56636,105.37192 70.75,106 C 69.950223,106.61532 69.151834,107.28352 68.53125,107.875 C 67.910666,108.46648 67.457254,109.08549 67.4375,109.125 C 66.795183,110.40966 66.656251,111.01113 66.65625,111.40625 C 66.656249,111.80137 66.79286,112.36697 67.4375,113.65625 C 68.508737,115.79869 71.238626,118.50994 73.40625,119.59375 C 73.420194,119.60072 73.716169,119.72245 74.09375,119.8125 C 74.471331,119.90255 74.941203,120.00682 75.5,120.09375 C 76.617594,120.2676 78.019732,120.375 79.34375,120.375 C 80.667768,120.375 82.061733,120.2677 83.1875,120.09375 C 83.750383,120.00678 84.244385,119.90262 84.625,119.8125 C 85.005615,119.72238 85.301024,119.59949 85.3125,119.59375 C 87.46483,118.51759 90.129974,115.83377 91.21875,113.65625 C 91.863391,112.36696 92,111.80136 92,111.40625 C 92,111.01114 91.861073,110.40966 91.21875,109.125 C 91.19582,109.07914 90.747155,108.46547 90.125,107.875 C 89.502845,107.28453 88.701164,106.61737 87.90625,106 C 87.087117,105.36383 86.270501,104.74229 85.53125,104.0625 C 85.244166,103.79851 84.753139,103.45573 84.3125,102.875 C 83.871861,102.29427 83.53125,101.45743 83.53125,100.34375 C 83.531268,97.379709 85.219918,95.092584 87.03125,93.28125 C 88.84258,91.469918 91.129694,89.78125 94.09375,89.78125 L 120.34375,89.78125 L 120.34375,7.65625 L 101.4375,7.65625 L 94.09375,7.65625 C 94.335673,7.65625 94.141031,7.6510405 93.96875,7.71875 C 93.796469,7.7864595 93.547062,7.8862865 93.28125,8.03125 C 92.749627,8.321177 92.111245,8.7637534 91.59375,9.28125 C 90.882053,9.9929498 90.566839,10.672896 90.34375,11.1875 C 90.759906,11.539387 91.205732,11.904699 91.84375,12.40625 C 93.485578,13.696904 95.698193,15.208885 96.96875,17.75 C 97.803287,19.419091 98.406249,21.061011 98.40625,22.875 C 98.406251,24.688989 97.803293,26.330913 96.96875,28 C 95.133934,31.669572 91.904839,34.985119 88.1875,36.84375 C 85.641332,38.116832 82.56124,38.281247 79.375,38.28125 C 76.188762,38.281253 73.080092,38.118189 70.53125,36.84375 C 66.830832,34.993542 63.537716,31.700381 61.6875,28 C 60.852957,26.330911 60.249997,24.688987 60.25,22.875 C 60.250003,21.061011 60.852976,19.419086 61.6875,17.75 C 62.967404,15.190199 65.221524,13.693878 66.875,12.40625 C 67.510541,11.911328 67.957851,11.540908 68.375,11.1875 C 68.152612,10.669817 67.844375,9.993047 67.125,9.28125 C 66.602566,8.7643197 65.951429,8.3214723 65.40625,8.03125 C 65.13366,7.8861389 64.896517,7.7869246 64.71875,7.71875 C 64.540983,7.6505754 64.32192,7.6562517 64.5625,7.65625 L 57.1875,7.65625 L 38.3125,7.65625 z" transform="matrix(0,1,-1,0,128.01557,1.5567479e-2)" fill="none" fill-rule="evenodd" stroke="url(#5)" stroke-width="2.15"/>
 </g>
</svg>